<?xml version="1.0" encoding="iso-8859-1"?>
<!-- Generator: Adobe Illustrator 18.0.0, SVG Export Plug-In . SVG Version: 6.00 Build 0)  -->
<!DOCTYPE svg PUBLIC "-//W3C//DTD SVG 1.1//EN" "http://www.w3.org/Graphics/SVG/1.1/DTD/svg11.dtd">
<svg version="1.1" id="Capa_1" xmlns="http://www.w3.org/2000/svg" xmlns:xlink="http://www.w3.org/1999/xlink" x="0px" y="0px"
	 viewBox="0 0 474.23 474.23" style="enable-background:new 0 0 474.23 474.23;" xml:space="preserve">
<g>
	<path style="fill:#020202;" d="M413.92,32.577H60.309C27.051,32.577,0,59.627,0,92.884v236.611c0,33.259,27.051,60.31,60.309,60.31
		h188.755v-47.911H80.771V80.487H413.92c6.838,0,12.399,5.559,12.399,12.397v4.204h18.067c10.879,0,20.953,3.072,29.844,8.031
		V92.884C474.23,59.627,447.178,32.577,413.92,32.577z M41.361,233.886c-12.548,0-22.708-10.168-22.708-22.692
		c0-12.538,10.16-22.706,22.708-22.706c12.532,0,22.7,10.168,22.7,22.706C64.061,223.718,53.893,233.886,41.361,233.886z"/>
	<path style="fill:#020202;" d="M444.386,129.028H310.81c-16.432,0-29.805,13.374-29.805,29.803V411.85
		c0,16.43,13.374,29.803,29.805,29.803h133.577c16.43,0,29.804-13.374,29.804-29.803V158.831
		C474.19,142.401,460.816,129.028,444.386,129.028z M312.945,160.968h129.305v223.41H312.945V160.968z M363.048,411.125
		c0-8.04,6.511-14.552,14.534-14.552c8.055,0,14.574,6.512,14.574,14.552c0,8.031-6.519,14.558-14.574,14.558
		C369.559,425.683,363.048,419.156,363.048,411.125z"/>
</g>
<g>
</g>
<g>
</g>
<g>
</g>
<g>
</g>
<g>
</g>
<g>
</g>
<g>
</g>
<g>
</g>
<g>
</g>
<g>
</g>
<g>
</g>
<g>
</g>
<g>
</g>
<g>
</g>
<g>
</g>
</svg>
